<svg width="80" height="80" viewBox="0 0 80 80" fill="none" xmlns="http://www.w3.org/2000/svg">
<g clip-path="url(#clip0)">
<path d="M69.679 13.5465C69.2292 12.9049 68.4674 12.6158 67.7218 12.7266C67.6934 12.7199 67.6651 12.7077 67.6367 12.7036L37.1033 8.22191C36.7697 8.17193 36.4293 8.2084 36.1119 8.32457L11.6568 17.288C11.646 17.2921 11.6366 17.2988 11.6258 17.3029C11.6001 17.3137 11.5758 17.3299 11.5488 17.3394C11.415 17.3988 11.2908 17.469 11.176 17.5514C11.1408 17.5771 11.1071 17.6028 11.072 17.6311C10.9463 17.7338 10.8315 17.8459 10.7356 17.9742C10.7302 17.9823 10.7221 17.9864 10.7167 17.9945L0.390338 32.1205C-0.0054279 32.6621 -0.108084 33.3672 0.117489 33.9993C0.343062 34.6328 0.868498 35.111 1.51955 35.2785L10.4803 37.5923V59.7457C10.4803 60.6358 11.0625 61.4233 11.9148 61.684L44.7242 71.7092C44.735 71.7146 44.7471 71.7105 44.7579 71.7159C44.9335 71.7645 45.1172 71.7956 45.3009 71.797C45.305 71.797 45.3104 71.7997 45.3158 71.7997H45.3172C45.5103 71.7997 45.6994 71.7645 45.8885 71.7092C45.9479 71.6902 46.0033 71.6646 46.0641 71.6389C46.1438 71.6092 46.2221 71.5876 46.3005 71.5471L69.8438 58.4814C70.4881 58.1235 70.8866 57.4454 70.8866 56.7092V34.5599L78.8505 30.7373C79.3867 30.4807 79.7825 29.9985 79.9338 29.423C80.0837 28.8463 79.9743 28.2344 79.6326 27.7468L69.679 13.5465ZM37.0236 12.3065L60.856 15.8049L45.047 23.1556L20.0125 18.5429L37.0236 12.3065ZM13.2385 21.4145L41.9241 26.7013L33.4928 39.3496L5.42453 32.1029L13.2385 21.4145ZM14.5325 58.2464V38.6378L33.8724 43.6314C34.0412 43.6733 34.21 43.6963 34.3789 43.6963C35.0448 43.6963 35.6824 43.3667 36.0646 42.794L43.2897 31.957V67.0329L14.5325 58.2464ZM66.833 55.5152L47.3406 66.3305V34.3276L50.8997 41.8903C51.1307 42.3779 51.5467 42.7562 52.0533 42.9344C52.2734 43.0155 52.5031 43.052 52.7313 43.052C53.0326 43.052 53.3311 42.9844 53.608 42.8548L66.8303 36.509L66.833 55.5152ZM53.6985 38.3176L48.0159 26.2448L67.3341 17.2624L74.9442 28.1182L53.6985 38.3176Z" fill="#58A494"/>
</g>
<defs>
<clipPath id="clip0">
<rect width="80" height="80" fill="white"/>
</clipPath>
</defs>
</svg>
