<svg width="22" height="22" viewBox="0 0 22 22" fill="none" xmlns="http://www.w3.org/2000/svg">
<g clip-path="url(#clip0)">
<path d="M19.3143 2.62891H2.69025C1.20629 2.62891 0 3.8352 0 5.31916V16.6811C0 18.165 1.20629 19.3713 2.69025 19.3713H19.3097C20.7937 19.3713 22 18.165 22 16.6811V5.32371C22.0046 3.83975 20.7983 2.62891 19.3143 2.62891ZM20.7755 16.6811C20.7755 17.4868 20.12 18.1423 19.3143 18.1423H2.69025C1.88454 18.1423 1.22905 17.4868 1.22905 16.6811V5.32371C1.22905 4.518 1.88454 3.86251 2.69025 3.86251H19.3097C20.1155 3.86251 20.771 4.518 20.771 5.32371V16.6811H20.7755Z" fill="#58A494"/>
<path d="M13.8746 10.8591L19.2551 6.03397C19.5055 5.80637 19.5282 5.41944 19.3006 5.16453C19.073 4.91417 18.6861 4.89141 18.4312 5.11901L11.0114 11.7786L9.56384 10.4859C9.55928 10.4813 9.55473 10.4768 9.55473 10.4722C9.52287 10.4403 9.491 10.413 9.45459 10.3857L3.56425 5.11446C3.30933 4.88685 2.92241 4.90961 2.69481 5.16453C2.46721 5.41944 2.48997 5.80637 2.74488 6.03397L8.18912 10.9001L2.76764 15.9756C2.52183 16.2078 2.50818 16.5947 2.74033 16.8451C2.86323 16.9725 3.02711 17.0408 3.19098 17.0408C3.3412 17.0408 3.49142 16.9862 3.60977 16.8769L9.11318 11.7286L10.6063 13.0623C10.7246 13.167 10.8703 13.2171 11.0159 13.2171C11.1616 13.2171 11.3118 13.1625 11.4256 13.0578L12.9597 11.683L18.4312 16.8815C18.5496 16.9953 18.7043 17.0499 18.8545 17.0499C19.0184 17.0499 19.1777 16.9862 19.3006 16.8587C19.5328 16.6129 19.5237 16.2214 19.2779 15.9893L13.8746 10.8591Z" fill="#58A494"/>
</g>
<defs>
<clipPath id="clip0">
<rect width="22" height="22" fill="white"/>
</clipPath>
</defs>
</svg>
