<svg width="82" height="82" viewBox="0 0 82 82" fill="none" xmlns="http://www.w3.org/2000/svg">
<path d="M61.5658 30.2804H49.8461V22.1312C49.8461 17.8169 48.5439 14.6743 45.9661 12.7835C42.0064 9.85403 36.8243 11.372 36.2396 11.5584C35.15 11.9047 34.4059 12.9167 34.4059 14.0618V24.4747C34.4059 31.7984 25.6892 34.3817 25.3438 34.4882C25.1577 34.5414 24.9717 34.6213 24.8123 34.7012C23.9353 34.0621 22.8723 33.6626 21.703 33.6626H14.1822C11.312 33.6626 9 36.0062 9 38.8557V64.8747C9 67.7509 11.3386 70.0679 14.1822 70.0679H21.703C22.9786 70.0679 24.1479 69.5885 25.078 68.8162C26.7257 70.1744 28.7985 71 31.084 71H56.5431C62.7085 71 66.8277 67.5912 67.5452 61.892L70.9734 40.1074C71 39.9743 71 39.8411 71 39.708C71 34.5148 66.7745 30.2804 61.5658 30.2804ZM21.6498 64.8481H14.2619V38.9623H21.6498V64.8481ZM62.3631 61.173C62.3631 61.1996 62.3631 61.2262 62.3631 61.2529C62.2036 62.4779 61.805 65.7802 56.5696 65.7802H31.1106C28.7985 65.7802 26.9117 63.8894 26.9117 61.5724V39.5482C28.3999 39.0954 39.6678 35.3404 39.6678 24.5014V16.2989C40.7308 16.2456 41.9799 16.3787 42.8568 17.0445C43.9996 17.8967 44.5577 19.6012 44.5577 22.1312V32.9169C44.5577 34.3817 45.727 35.5534 47.1886 35.5534H61.5392C63.7981 35.5534 65.6318 37.3378 65.7115 39.5748L62.3631 61.173Z" fill="#58A494"/>
</svg>
