<svg width="22" height="22" viewBox="0 0 22 22" fill="none" xmlns="http://www.w3.org/2000/svg">
<path d="M10.9954 0C6.13414 0 2.17691 3.95723 2.17691 8.81845C2.17691 9.37191 2.22764 9.92998 2.33372 10.4742C2.33834 10.5065 2.35678 10.6034 2.39368 10.7694C2.52743 11.3644 2.72576 11.9501 2.98404 12.5082C3.93414 14.7451 6.02345 18.1811 10.6079 21.8616C10.7232 21.9539 10.8616 22 11 22C11.1383 22 11.2767 21.9539 11.392 21.8616C15.9719 18.1811 18.0658 14.7451 19.0159 12.5082C19.2742 11.9501 19.4725 11.369 19.6063 10.7694C19.6432 10.6034 19.6616 10.5065 19.6662 10.4742C19.7677 9.92998 19.823 9.37191 19.823 8.81845C19.8138 3.95723 15.8566 0 10.9954 0ZM18.4302 10.2574C18.4302 10.2667 18.4255 10.2759 18.4255 10.2851C18.4209 10.3082 18.4071 10.3774 18.384 10.4834C18.384 10.4881 18.384 10.4881 18.384 10.4927C18.2687 11.0092 18.0981 11.512 17.8721 11.9962C17.8675 12.0008 17.8675 12.0101 17.8629 12.0147C17.0004 14.0579 15.1094 17.1757 10.9954 20.5748C6.88131 17.1757 4.99033 14.0579 4.12785 12.0147C4.12324 12.0101 4.12324 12.0008 4.11863 11.9962C3.89725 11.5166 3.7266 11.0092 3.60668 10.4927C3.60668 10.4881 3.60668 10.4881 3.60668 10.4834C3.57901 10.3774 3.56978 10.3082 3.56517 10.2851C3.56517 10.2759 3.56056 10.2667 3.56056 10.2528C3.46831 9.77778 3.42219 9.29811 3.42219 8.81384C3.42219 4.63983 6.82135 1.24067 10.9954 1.24067C15.1694 1.24067 18.5685 4.63983 18.5685 8.81384C18.5685 9.30273 18.5224 9.787 18.4302 10.2574Z" fill="#58A494"/>
<path d="M10.9954 3.31616C7.90984 3.31616 5.39621 5.82979 5.39621 8.91532C5.39621 12.0009 7.90984 14.5145 10.9954 14.5145C14.0809 14.5145 16.5945 12.0009 16.5945 8.91532C16.5945 5.82979 14.0809 3.31616 10.9954 3.31616ZM10.9954 13.2692C8.59244 13.2692 6.64149 11.3136 6.64149 8.91532C6.64149 6.517 8.59705 4.56144 10.9954 4.56144C13.3937 4.56144 15.3492 6.517 15.3492 8.91532C15.3492 11.3136 13.3983 13.2692 10.9954 13.2692Z" fill="#58A494"/>
</svg>
