<svg width="111" height="50" viewBox="0 0 111 50" fill="none" xmlns="http://www.w3.org/2000/svg">
<g clip-path="url(#clip0)">
<path fill-rule="evenodd" clip-rule="evenodd" d="M39.4254 50V24.7924H44.4563L50.3838 42.586C50.9321 44.2467 51.3396 45.4848 51.5842 46.293C51.8707 45.3786 52.3177 44.0317 52.9253 42.2523L58.9491 24.7405H63.3947V49.9481H60.2309V28.9146L52.9178 50H49.917L42.641 28.5661V50H39.4254ZM68.9592 24.7924H85.2598V27.758H72.3008V35.5872H78.3024C80.0904 35.5296 81.8768 35.7446 83.6001 36.2248C84.8822 36.6192 85.9907 37.4407 86.7417 38.5528C87.5476 39.7658 87.9638 41.1963 87.9346 42.6527C87.9395 43.8925 87.6473 45.1154 87.0825 46.2188C86.5043 47.34 85.6273 48.2792 84.5485 48.9324C83.4322 49.6293 81.523 49.9802 78.8211 49.9851H68.9666V24.7775L68.9592 24.7924ZM72.2934 47.1382H78.9618C80.386 47.2473 81.8049 46.8681 82.9851 46.0631C83.4492 45.6563 83.8125 45.1472 84.0465 44.576C84.2805 44.0048 84.3788 43.387 84.3336 42.7713C84.3778 41.8415 84.1177 40.9227 83.5927 40.1542C83.0681 39.4501 82.3082 38.9581 81.4514 38.7678C79.905 38.4835 78.3326 38.3667 76.7612 38.4193H72.3156V47.1678L72.2934 47.1382ZM92.032 24.7924H108.333V27.758H95.3662V35.5872H101.368C103.156 35.5296 104.942 35.7446 106.666 36.2248C107.95 36.6177 109.062 37.4394 109.815 38.5528C110.617 39.7669 111.031 41.1972 111 42.6527C111.005 43.8925 110.713 45.1154 110.148 46.2188C109.57 47.34 108.693 48.2792 107.614 48.9324C106.498 49.6293 104.588 49.9802 101.886 49.9851H92.032V24.7775V24.7924ZM95.3662 47.1382H102.035C103.47 47.2438 104.898 46.8539 106.08 46.0335C106.541 45.6305 106.904 45.1265 107.139 44.5608C107.374 43.9951 107.476 43.3828 107.436 42.7713C107.48 41.8415 107.22 40.9227 106.695 40.1542C106.151 39.4335 105.359 38.9397 104.472 38.7678C102.926 38.4835 101.354 38.3667 99.7822 38.4193H95.3366L95.3662 47.1382Z" fill="#84746C"/>
<path fill-rule="evenodd" clip-rule="evenodd" d="M36.8246 50H0L8.32074 35.5872H2.51919L9.57293 23.6284H4.90501L18.4123 0L32.0678 23.7619H27.0887L34.2165 35.7206H28.578L36.8246 50ZM6.53508 33.489L9.49883 33.5632L18.3901 18.1198L24.6955 28.5661H21.8206L18.4271 22.9834L4.31226 47.5979H32.6606L24.5621 33.5632H30.4303L18.4864 12.9226L15.5597 17.7195H13.2702L18.4568 8.39264L26.1255 21.6118H28.4298L18.4123 4.15925L8.54302 21.6563H13.3369L6.53508 33.489Z" fill="#58A494"/>
</g>
<defs>
<clipPath id="clip0">
<rect width="111" height="50" fill="white"/>
</clipPath>
</defs>
</svg>
