<svg width="22" height="22" viewBox="0 0 22 22" fill="none" xmlns="http://www.w3.org/2000/svg">
<path d="M17.6247 20.2876V1.70787C17.6247 0.768539 16.8607 0 15.9169 0H6.08317C5.14384 0 4.37531 0.764045 4.37531 1.70787V20.2921C4.37531 21.2315 5.13935 22 6.08317 22H15.9169C16.8562 21.9955 17.6247 21.2315 17.6247 20.2876ZM5.47643 3.95955H16.5191V16.4629H5.47643V3.95955ZM6.08317 1.10112H15.9169C16.2495 1.10112 16.5236 1.37079 16.5236 1.70787V2.85843H5.47643V1.70787C5.47643 1.37079 5.75059 1.10112 6.08317 1.10112ZM5.47643 20.2876V17.5596H16.5191V20.2876C16.5191 20.6202 16.2495 20.8944 15.9124 20.8944H6.08317C5.75059 20.8944 5.47643 20.6247 5.47643 20.2876Z" fill="#58A494"/>
<path d="M12.1147 18.7236H9.88094C9.57532 18.7236 9.32812 18.9708 9.32812 19.2764C9.32812 19.5821 9.57532 19.8293 9.88094 19.8293H12.1147C12.4203 19.8293 12.6675 19.5821 12.6675 19.2764C12.6675 18.9708 12.4203 18.7236 12.1147 18.7236Z" fill="#58A494"/>
</svg>
