<svg width="80" height="80" viewBox="0 0 80 80" fill="none" xmlns="http://www.w3.org/2000/svg">
<path d="M40.0006 80L39.0771 79.6045C28.8934 75.2399 20.2808 68.02 14.1705 58.7256C8.06885 49.444 4.84375 38.6743 4.84375 27.5818V14.8511L40.0006 0L75.1575 14.8511V27.5818C75.1575 38.6743 71.9318 49.4434 65.8301 58.7256C59.7205 68.02 51.1078 75.2399 40.9241 79.6045L40.0006 80ZM9.53125 17.9596V27.5818C9.53125 48.056 21.4569 66.5143 40.0006 74.8895C58.5443 66.5143 70.4694 48.056 70.4694 27.5818V17.9596L40.0006 5.0885L9.53125 17.9596Z" fill="#58A494"/>
<path d="M39.8444 61.25C28.2129 61.25 18.75 51.7871 18.75 40.1556C18.75 28.5242 28.2129 19.0619 39.8444 19.0619C51.4752 19.0619 60.9381 28.5242 60.9381 40.1556C60.9381 51.7871 51.4758 61.25 39.8444 61.25ZM39.8444 23.7494C30.7977 23.7494 23.4375 31.109 23.4375 40.1556C23.4375 49.2023 30.7977 56.5619 39.8444 56.5619C48.891 56.5619 56.2506 49.2023 56.2506 40.1556C56.2506 31.109 48.891 23.7494 39.8444 23.7494Z" fill="#58A494"/>
<path d="M37.5006 50.5017L28.8116 41.8134L32.1265 38.4985L37.5006 43.8727L47.5623 33.811L50.8765 37.1252L37.5006 50.5017Z" fill="#58A494"/>
</svg>
