<svg width="80" height="80" viewBox="0 0 80 80" fill="none" xmlns="http://www.w3.org/2000/svg">
<path d="M69.0625 30.3052C69.0625 14.1122 55.8852 0.9375 39.6883 0.9375C23.4906 0.9375 10.3125 14.1114 10.3125 30.3052C10.3125 45.71 22.2403 58.3744 37.3469 59.5721V75.1619H31.0587V79.8438H48.3186V75.1619H42.0289V59.5714C57.1355 58.3736 69.0625 45.71 69.0625 30.3052ZM14.996 30.3052C14.996 16.6935 26.0731 5.61934 39.6891 5.61934C53.3034 5.61934 64.3805 16.6935 64.3805 30.3052C64.3805 43.1279 54.5506 53.6941 42.0304 54.877V41.4355L52.8968 30.2942L49.5447 27.0263L42.0304 34.7311V25.9682H37.3477V42.89L29.8357 35.186L26.4821 38.4539L37.3477 49.5983V54.8786C24.8267 53.6941 14.996 43.1279 14.996 30.3052Z" fill="#58A494"/>
</svg>
