<svg width="179" height="102" viewBox="0 0 179 102" fill="none" xmlns="http://www.w3.org/2000/svg">
<rect width="179" height="102" fill="#58A494"/>
<g clip-path="url(#clip0)">
<path fill-rule="evenodd" clip-rule="evenodd" d="M72.4499 72V46.7924H77.484L83.4152 64.586C83.9638 66.2467 84.3716 67.4849 84.6163 68.293C84.9029 67.3786 85.3502 66.0317 85.9582 64.2524L91.9858 46.7405H96.4342V71.9481H93.2684V50.9146L85.9508 72H82.9481L75.6676 50.5661V72H72.4499ZM102.002 46.7924H118.313V49.758H105.346V57.5872H111.351C113.14 57.5296 114.928 57.7446 116.652 58.2248C117.935 58.6192 119.044 59.4407 119.796 60.5528C120.602 61.7659 121.019 63.1964 120.989 64.6527C120.994 65.8925 120.702 67.1154 120.137 68.2189C119.558 69.34 118.681 70.2792 117.601 70.9324C116.484 71.6293 114.574 71.9802 111.87 71.9852H102.009V46.7776L102.002 46.7924ZM105.338 69.1382H112.011C113.436 69.2473 114.856 68.8682 116.037 68.0632C116.501 67.6563 116.865 67.1472 117.099 66.576C117.333 66.0048 117.431 65.387 117.386 64.7714C117.43 63.8415 117.17 62.9227 116.645 62.1542C116.12 61.4501 115.359 60.9581 114.502 60.7678C112.955 60.4835 111.381 60.3667 109.809 60.4193H105.361V69.1679L105.338 69.1382ZM125.089 46.7924H141.4V49.758H128.426V57.5872H134.431C136.22 57.5296 138.007 57.7446 139.732 58.2248C141.017 58.6177 142.13 59.4394 142.883 60.5528C143.686 61.7669 144.1 63.1972 144.069 64.6527C144.074 65.8925 143.782 67.1154 143.216 68.2189C142.638 69.34 141.76 70.2792 140.681 70.9324C139.564 71.6293 137.654 71.9802 134.95 71.9852H125.089V46.7776V46.7924ZM128.426 69.1382H135.098C136.534 69.2438 137.963 68.8539 139.146 68.0335C139.608 67.6305 139.97 67.1266 140.205 66.5608C140.441 65.9951 140.543 65.3828 140.503 64.7714C140.547 63.8415 140.287 62.9227 139.762 62.1542C139.217 61.4335 138.424 60.9398 137.537 60.7678C135.99 60.4835 134.417 60.3667 132.844 60.4193H128.396L128.426 69.1382Z" fill="white"/>
<path fill-rule="evenodd" clip-rule="evenodd" d="M69.8476 72H33L41.3259 57.5872H35.5208L42.5789 45.6284H37.9081L51.4238 22L65.0878 45.7619H60.1056L67.2378 57.7206H61.5958L69.8476 72ZM39.5391 55.489L42.5047 55.5632L51.4015 40.1198L57.7109 50.5661H54.8342L51.4386 44.9834L37.3149 69.5979H65.6809L57.5774 55.5632H63.4493L51.4979 34.9226L48.5694 39.7195H46.2785L51.4683 30.3926L59.1418 43.6118H61.4475L51.4238 26.1593L41.5483 43.6563H46.3452L39.5391 55.489Z" fill="white"/>
</g>
<defs>
<clipPath id="clip0">
<rect width="111.069" height="50" fill="white" transform="translate(33 22)"/>
</clipPath>
</defs>
</svg>
